<?xml version="1.0" standalone="no"?>
<!DOCTYPE svg PUBLIC "-//W3C//DTD SVG 20010904//EN"
 "http://www.w3.org/TR/2001/REC-SVG-20010904/DTD/svg10.dtd">
<svg version="1.0" xmlns="http://www.w3.org/2000/svg"
 width="256.000000pt" height="256.000000pt" viewBox="0 0 256.000000 256.000000"
 preserveAspectRatio="xMidYMid meet">

<g transform="translate(0.000000,256.000000) scale(0.100000,-0.100000)"
fill="#000000" stroke="none">
<path d="M769 2239 c-146 -34 -286 -141 -353 -269 -65 -124 -66 -131 -66 -665
0 -528 0 -526 62 -650 64 -127 228 -249 367 -275 72 -13 971 -13 1042 0 155
29 308 149 383 297 53 105 56 139 56 633 0 414 -2 462 -19 531 -48 188 -203
346 -386 394 -50 13 -140 15 -555 14 -272 -1 -511 -5 -531 -10z m1038 -158
c84 -22 128 -47 177 -101 95 -106 105 -167 105 -660 1 -212 -4 -416 -9 -455
-29 -200 -150 -312 -361 -336 -57 -7 -249 -9 -489 -7 -379 4 -398 5 -459 27
-154 54 -227 151 -251 334 -18 131 -8 885 12 952 33 112 82 176 166 217 89 43
133 46 598 47 399 1 447 -1 511 -18z"/>
<path d="M1763 1925 c-83 -36 -81 -160 3 -200 42 -20 62 -19 102 5 74 46 67
162 -13 196 -42 17 -51 17 -92 -1z"/>
<path d="M1181 1784 c-275 -74 -433 -361 -342 -620 46 -129 136 -229 261 -287
73 -34 116 -42 225 -41 70 1 102 6 145 24 195 83 310 250 310 450 0 41 -6 98
-14 126 -68 254 -337 415 -585 348z m253 -178 c62 -29 128 -93 158 -155 33
-67 33 -204 -1 -278 -86 -193 -363 -244 -515 -95 -72 69 -100 138 -100 237 0
68 4 88 28 135 48 95 110 148 207 175 70 19 157 12 223 -19z"/>
</g>
</svg>
