<?xml version="1.0" standalone="no"?>
<!DOCTYPE svg PUBLIC "-//W3C//DTD SVG 20010904//EN"
 "http://www.w3.org/TR/2001/REC-SVG-20010904/DTD/svg10.dtd">
<svg version="1.0" xmlns="http://www.w3.org/2000/svg"
 width="500.000000pt" height="500.000000pt" viewBox="0 0 500.000000 500.000000"
 preserveAspectRatio="xMidYMid meet">

<g transform="translate(0.000000,500.000000) scale(0.100000,-0.100000)"
fill="#000000" stroke="none">
<path d="M1800 4020 c-387 -11 -629 -25 -825 -50 -243 -31 -319 -62 -431 -174
-111 -112 -154 -222 -188 -488 -55 -425 -55 -1188 -1 -1609 36 -275 77 -382
190 -494 119 -120 224 -156 530 -184 721 -65 2380 -60 2945 10 237 29 326 64
436 174 84 84 124 159 153 290 53 241 75 528 75 1005 0 605 -41 981 -125 1157
-54 112 -170 219 -289 264 -108 41 -382 72 -795 89 -332 14 -1308 20 -1675 10z
m708 -1112 c240 -138 493 -284 562 -324 69 -40 125 -77 125 -84 0 -6 -121 -81
-270 -167 -148 -85 -402 -231 -563 -324 -161 -94 -297 -167 -302 -164 -11 7
-14 1297 -3 1308 3 4 8 7 10 7 2 0 200 -113 441 -252z"/>
</g>
</svg>
